<svg id="brand_icons" data-name="brand icons" xmlns="http://www.w3.org/2000/svg" viewBox="0 0 61.11 13.35"><defs><style>.cls-1{fill-rule:evenodd;}</style></defs><title>itunes</title><path class="cls-1" d="M244.2,139.63a9.55,9.55,0,0,1-.87,1.62c-0.57.86-1.37,1.93-2.36,1.93s-1.11-.57-2.3-0.56-1.44.57-2.32,0.56-1.75-1-2.32-1.83c-1.59-2.4-1.75-5.21-.77-6.71a3.51,3.51,0,0,1,2.82-1.69c1.05,0,1.71.57,2.58,0.57S240,133,241.23,133a3.43,3.43,0,0,1,2.58,1.35,2.93,2.93,0,0,0,.39,5.32h0Z" transform="translate(-232.65 -129.84)"/><path class="cls-1" d="M240.31,132a2.91,2.91,0,0,0,.65-2.17,3.19,3.19,0,0,0-2.06,1.1,2.7,2.7,0,0,0-.67,2.11,2.69,2.69,0,0,0,2.07-1h0Z" transform="translate(-232.65 -129.84)"/><polygon points="16.06 4.35 18.19 4.35 18.19 12.68 16.06 12.68 16.06 4.35 16.06 4.35"/><polygon points="19.56 1.15 27.86 1.15 27.86 2.93 24.82 2.93 24.82 12.68 22.57 12.68 22.57 2.93 19.56 2.93 19.56 1.15 19.56 1.15"/><path d="M260.54,134.26h2v4.39a3,3,0,0,0,.38,1.69,1.35,1.35,0,0,0,1.18.54,1.55,1.55,0,0,0,1.39-.75,4.08,4.08,0,0,0,.48-2.18v-3.68h2v8.26H266.2v-1.58a3.16,3.16,0,0,1-1.16,1.28,3.11,3.11,0,0,1-1.65.43,2.57,2.57,0,0,1-2.13-.9,4.16,4.16,0,0,1-.73-2.64v-4.84h0Z" transform="translate(-232.65 -129.84)"/><path d="M277.78,137.6v4.92h-2.06v-4.46a3,3,0,0,0-.38-1.69,1.34,1.34,0,0,0-1.18-.55,1.6,1.6,0,0,0-1.36.69,3.18,3.18,0,0,0-.5,1.9v4.11h-2v-8.26h1.86v1.5a3.22,3.22,0,0,1,1.16-1.28,3.13,3.13,0,0,1,1.66-.43,2.55,2.55,0,0,1,2.12.9,4.21,4.21,0,0,1,.72,2.65h0Z" transform="translate(-232.65 -129.84)"/><path d="M286.68,138.3V139h-5.59a2.33,2.33,0,0,0,.78,1.64,2.69,2.69,0,0,0,1.82.6,4.77,4.77,0,0,0,2.33-.6v1.63a6,6,0,0,1-1.25.37,8.09,8.09,0,0,1-1.44.12,4.06,4.06,0,0,1-3.11-1.19,4.62,4.62,0,0,1-1.12-3.3,4.26,4.26,0,0,1,1.09-3A3.72,3.72,0,0,1,283,134a3.35,3.35,0,0,1,2.69,1.12,4.67,4.67,0,0,1,1,3.14h0Zm-1.84-.65a2.87,2.87,0,0,0-.57-1.63,1.55,1.55,0,0,0-1.25-.58,1.66,1.66,0,0,0-1.3.58,2.89,2.89,0,0,0-.63,1.63h3.75Z" transform="translate(-232.65 -129.84)"/><path d="M293.42,134.52l-0.15,1.57a5,5,0,0,0-1-.43,3.79,3.79,0,0,0-1-.14,1.52,1.52,0,0,0-.84.2,0.63,0.63,0,0,0-.29.56q0,0.55,1.25,1.12l0.21,0.1a5.18,5.18,0,0,1,1.76,1.16,2.1,2.1,0,0,1,.48,1.4,2.22,2.22,0,0,1-.9,1.87,4,4,0,0,1-2.46.69,7.37,7.37,0,0,1-1.28-.11,6.49,6.49,0,0,1-1.18-.31l0.11-1.63a5.25,5.25,0,0,0,1.16.44,4.9,4.9,0,0,0,1.17.15,1.75,1.75,0,0,0,.94-0.21,0.65,0.65,0,0,0,.33-0.58q0-.61-1.57-1.43l0,0a5.09,5.09,0,0,1-1.59-1.12,2,2,0,0,1-.41-1.26,2.15,2.15,0,0,1,.88-1.77,3.69,3.69,0,0,1,2.32-.68,4.32,4.32,0,0,1,.85.09,13.44,13.44,0,0,1,1.33.37h0Z" transform="translate(-232.65 -129.84)"/><path class="cls-1" d="M249.75,130.36a1.31,1.31,0,1,1-1.31,1.31,1.31,1.31,0,0,1,1.31-1.31h0Z" transform="translate(-232.65 -129.84)"/></svg>